<?xml version="1.0" encoding="UTF-8" standalone="no"?>
<svg
   version="1.2"
   viewBox="0 0 65536 65536"
   id="svg6"
   width="65536"
   height="65536"
   xmlns="http://www.w3.org/2000/svg"
   xmlns:svg="http://www.w3.org/2000/svg">
  <defs
     id="defs6" />
  <title
     id="title1">FractureMC</title>
  <g
     fill="#040404"
     transform="matrix(0.1,0,0,-0.1,138.36911,311.03502)"
     id="g3"
     style="fill:none;stroke:none">
    <path
       d="M 0,1280 V 0 H 2560 V 2560 H 0 Z m 1515,298 c -4,-24 -11,-63 -14,-88 l -6,-45 -192,-3 -192,-2 -40,86 c -23,48 -41,88 -41,90 0,2 111,4 246,4 h 247 z m -218,-154 22,-6 3,-37 3,-36 70,-5 70,-5 -3,-65 c -2,-36 -6,-73 -8,-82 l -5,-18 h -52 c -29,0 -58,-4 -66,-9 l -13,-9 3,-118 4,-119 -111,-3 -111,-3 -7,32 c -8,41 -8,300 1,407 l 6,82 h 86 c 47,0 96,-3 108,-6 z"
       id="path3"
       style="fill:none;stroke:none" />
  </g>
  <path
     style="fill:none;stroke:none;stroke-width:0.830091;stroke-linecap:square"
     d="M 140.36133,183.03502 V 57.193254 H 266.36911 392.37689 V 183.03502 308.87678 H 266.36911 140.36133 Z m 124.11275,38.55043 c 4.93739,-0.2051 6.17512,-0.35359 6.61514,-0.79361 0.64238,-0.64237 0.91125,-4.04831 1.26701,-16.05007 l 0.23746,-8.01049 5.51781,-0.87786 c 4.08612,-0.65008 5.67698,-1.03702 6.13125,-1.49129 0.84231,-0.84231 1.48365,-5.21683 1.75825,-11.99295 0.20307,-5.0112 0.17146,-5.52238 -0.36932,-5.97119 -0.43741,-0.36301 -2.19984,-0.57871 -6.76787,-0.82833 l -6.17645,-0.33749 -0.39079,-2.82231 c -0.21493,-1.55227 -0.40385,-3.00908 -0.41982,-3.23736 -0.021,-0.30031 0.72818,-0.417 2.71026,-0.42215 5.45622,-0.0142 12.23255,-0.60039 13.03767,-1.12792 0.94279,-0.61774 1.50596,-2.44981 3.01928,-9.82217 1.22744,-5.97961 1.40837,-8.63511 0.64066,-9.40282 -0.74294,-0.74294 -10.08953,-0.9943 -30.82561,-0.82898 -13.35463,0.10647 -18.18921,0.24854 -18.7436,0.55081 -0.55365,0.30187 -0.74708,0.70658 -0.74708,1.5631 0,1.24647 2.01514,7.06068 4.48223,12.93242 l 1.53461,3.6524 -0.0389,26.45738 c -0.0269,18.24701 0.0739,26.87652 0.32474,27.80804 l 0.36369,1.35066 5.38279,-0.0228 c 2.96054,-0.0125 8.11603,-0.13629 11.45664,-0.27507 z"
     id="path10" />
  <path
     style="fill:none;stroke:none;stroke-width:0.830091;stroke-linecap:square"
     d="m 140.84719,308.13014 c -0.0867,-0.22852 -0.11948,-56.67074 -0.0728,-125.42716 l 0.0849,-125.011672 H 266.36911 391.87884 V 183.03502 308.37873 l -125.43697,0.0834 c -100.17568,0.0667 -125.46874,-1.9e-4 -125.59468,-0.33199 z m 129.40068,-86.56845 c 0.94273,-0.27854 1.30218,-0.60599 1.57079,-1.43096 0.39199,-1.20394 1.01479,-12.02608 1.02652,-17.8376 0.004,-2.10013 0.092,-4.13256 0.1951,-4.51651 0.1654,-0.61611 0.70102,-0.77956 4.56097,-1.39174 6.50326,-1.03141 6.91177,-1.20679 7.59327,-3.25998 0.66417,-2.00096 1.25454,-8.15164 1.25936,-13.12056 0.003,-2.76341 -0.10661,-3.62006 -0.50393,-3.94981 -0.30473,-0.2529 -2.26072,-0.54037 -4.89754,-0.71978 -2.41459,-0.16429 -5.21196,-0.404 -6.21637,-0.53268 l -1.8262,-0.23398 -0.28517,-2.44834 c -0.22589,-1.93936 -0.19138,-2.50776 0.16602,-2.73421 0.24815,-0.15723 2.02005,-0.29075 3.93756,-0.29672 4.16843,-0.0129 9.44567,-0.52196 10.69778,-1.03184 1.23934,-0.50466 2.00484,-2.69049 3.44132,-9.82642 0.77683,-3.85898 1.13235,-6.47086 1.06683,-7.83752 -0.15529,-3.23897 1.28809,-3.03305 -22.17869,-3.16416 -21.91667,-0.12245 -27.9501,0.0527 -28.73145,0.83405 -0.26826,0.26826 -0.48774,0.9978 -0.48774,1.62119 0,1.41918 1.72112,6.59323 4.12959,12.41439 l 1.84706,4.46427 0.002,26.58113 c 0.001,18.03423 0.11733,26.99703 0.361,27.87462 l 0.35914,1.2935 10.84523,-0.19457 c 6.22384,-0.11167 11.36615,-0.34849 12.0677,-0.55577 z"
     id="path11" />
  <path
     style="fill:#000000;stroke:none;stroke-width:3.89431;stroke-linecap:square"
     d="m 70.141898,43.827235 93.481292,0.112794 21.70322,0.367135 -1.74213,10.454435 -3.0479,14.744015 -2.16137,9.482881 -1.68743,5.873229 -1.43978,2.399671 -66.34403,-1.107651 -16.444869,-0.812088 -7.918939,-1.199836 v -2.879614 l -2.382983,-6.904083 -9.606935,-21.485488 -2.408146,-6.88569 z"
     id="path25" />
  <path
     style="fill:#000000;stroke:none;stroke-width:1.82865;stroke-linecap:square"
     d="m 84.808887,151.68483 c 0,-34.3969 0.246865,-62.52816 0.548582,-62.51388 0.301729,0.014 3.511007,0.51222 7.131731,1.10658 3.768622,0.61863 14.6087,1.2785 25.35469,1.5434 l 18.77155,0.46275 0.42927,5.01381 c 0.2361,2.75759 0.62915,7.33655 0.87341,10.17545 l 0.44413,5.16167 16.01372,-0.51681 16.01372,-0.51679 v 8.07817 c 0,9.87467 -1.17231,21.94839 -2.6165,26.9477 l -1.07449,3.71959 -11.50364,0.89598 c -6.32701,0.49278 -12.70339,1.07732 -14.16975,1.29897 l -2.66611,0.40298 -0.43602,13.99943 c -0.23983,7.69965 -0.6402,21.48773 -0.88975,30.6401 l -0.45374,16.64073 h -25.8854 -25.885403 z"
     id="path26" />
</svg>
