<?xml version="1.0"?><svg version="1.2" baseProfile="tiny-ps" viewBox="0 0 256 256" xmlns="http://www.w3.org/2000/svg" xmlns:xlink="http://www.w3.org/1999/xlink"><title>FractureMC</title><g><g fill="#fff" transform="matrix(.1 0 0 -.1 0 256)"><path d="M0 1280V0h2560v2560H0V1280z"/></g><g fill="#040404" transform="matrix(.1 0 0 -.1 0 256)"><path d="M0 1280V0h2560v2560H0V1280zm1520 338c0-14-31-162-36-169l-6-10-156 2c-87 1-172 4-189 6l-33 5v12c0 6-14 40-30 74-17 35-30 68-30 73v9h240c132 0 240-1 240-2zm-264-198h63l3-42 3-43 68 2 67 2-1-57c-1-31-4-68-8-82l-7-25-59-5-60-5-3-127-3-128h-219v523l46-7c26-3 75-6 110-6z"/></g><g fill="#040404" transform="matrix(.1 0 0 -.1 0 256)"><path d="M0 1280V0h2560v2560H0V1280zm1515 298c-4-24-11-63-14-88l-6-45-192-3-192-2-40 86c-23 48-41 88-41 90s111 4 246 4h247l-8-42zm-218-154 22-6 3-37 3-36 70-5 70-5-3-65c-2-36-6-73-8-82l-5-18h-52c-29 0-58-4-66-9l-13-9 3-118 4-119-111-3-111-3-7 32c-8 41-8 300 1 407l6 82h86c47 0 96-3 108-6z"/></g><g fill="#040404" transform="matrix(.1 0 0 -.1 0 256)"><path d="M0 1280V0h2560v2560H0V1280zm1527 336c1-1-5-26-13-56s-14-69-14-87-1-33-2-34c-2 0-41-3-88-6s-85-6-86-7c0 0 1-20 4-43l4-43h138l-1-42c0-24-3-61-7-83l-7-40-64-10-63-10 1-123 2-123-118 3-118 3-1 281-2 281-31 68-32 68 13 8 13 8 235-6c129-3 236-6 237-7zm-354-183c9-2 25-2 35 0l17 5h-70l18-5zm65 0c7-3 16-2 19 1 4 3-2 6-13 5l-19-1 13-5z"/></g><g fill="#040404" transform="matrix(.1 0 0 -.1 0 256)"><path d="M0 1280V0h2560v2560H0V1280zm1518 342 12-8-11-55c-6-30-14-70-18-89l-7-35-82-3-83-3 3-42 3-42h130v-166l-15-9-15-10h-104l-3-127-3-128h-230l-2 283-2 282-31 69-32 69 6 11 7 11h464l13-8z"/></g></g></svg>