<?xml version="1.0" encoding="UTF-8"?>
<svg version="1.2" viewBox="0 0 256 256" xmlns="http://www.w3.org/2000/svg" xmlns:cc="http://creativecommons.org/ns#" xmlns:dc="http://purl.org/dc/elements/1.1/" xmlns:rdf="http://www.w3.org/1999/02/22-rdf-syntax-ns#">
 <title>FractureMC</title>
 <g>
  <path d="m115.26 110.62c-4.1934-0.34683-4.6464-0.52881-5.0802-2.041-0.26197-0.9131-1.6826-4.4991-3.1568-7.9689l-2.6806-6.3087 22.992-0.17476c12.646-0.09612 23.239 0.07131 23.539 0.37208 0.57665 0.57665-1.8319 13.586-2.8835 15.574-0.55818 1.0556-1.8754 1.1514-14.371 1.0449-7.5659-0.0645-15.828-0.28862-18.36-0.49806z" stroke-linecap="square" stroke-width="1.6602"/>
  <path d="m110.24 138.7v-25.661l4.0818 0.42664c2.245 0.23465 6.9915 0.42664 10.548 0.42664h6.466l0.46225 4.3165 0.46226 4.3165h13.176l-0.0289 4.4825c-0.0276 4.2818-0.78815 9.8374-1.4353 10.484-0.16761 0.16761-2.5714 0.49635-5.3419 0.73054-2.7704 0.23418-5.3353 0.61009-5.6998 0.83536-0.37332 0.23072-0.87355 5.8446-1.1456 12.857l-0.4829 12.447h-21.062z"/>
 </g>
 <metadata>
  <rdf:RDF>
   <cc:Work rdf:about="">
    <dc:title>FractureMC</dc:title>
   </cc:Work>
  </rdf:RDF>
 </metadata>
</svg>
