<svg preserveAspectRatio="xMidYMid" viewBox="0 -28.5 256 256" xmlns="http://www.w3.org/2000/svg"><path d="M216.86 16.597A208.516 208.516 0 0 0 164.045 0c-2.275 4.113-4.933 9.646-6.765 14.046-19.692-2.961-39.203-2.961-58.533 0C96.914 9.646 94.197 4.113 91.9 0a207.786 207.786 0 0 0-52.855 16.638C5.62 67.147-3.44 116.401 1.09 164.958c22.169 16.555 43.653 26.612 64.775 33.193a161.085 161.085 0 0 0 13.873-22.848 136.43 136.43 0 0 1-21.846-10.632 108.656 108.656 0 0 0 5.356-4.237c42.123 19.702 87.89 19.702 129.51 0 1.751 1.46 3.543 2.88 5.355 4.237a136.075 136.075 0 0 1-21.887 10.653c4.007 8.02 8.638 15.671 13.873 22.848 21.142-6.58 42.646-16.637 64.815-33.213 5.316-56.288-9.08-105.09-38.056-148.36zm-131.38 118.5c-12.645 0-23.015-11.805-23.015-26.18s10.148-26.2 23.015-26.2 23.236 11.804 23.015 26.2c.02 14.375-10.148 26.18-23.015 26.18zm85.051 0c-12.645 0-23.015-11.805-23.015-26.18s10.148-26.2 23.015-26.2c12.866 0 23.236 11.804 23.015 26.2 0 14.375-10.148 26.18-23.015 26.18z"/></svg>