<?xml version="1.0" encoding="UTF-8" standalone="no"?>
<svg
   viewBox="0 0 4096 4096"
   id="email"
   version="1.1"
   sodipodi:docname="email.svg"
   inkscape:export-filename="..\Documents\GitHub\Rift-network.github.io\assets\socials\email.svg"
   inkscape:export-xdpi="96"
   inkscape:export-ydpi="96"
   width="4096"
   height="4096"
   xmlns:inkscape="http://www.inkscape.org/namespaces/inkscape"
   xmlns:sodipodi="http://sodipodi.sourceforge.net/DTD/sodipodi-0.dtd"
   xmlns="http://www.w3.org/2000/svg"
   xmlns:svg="http://www.w3.org/2000/svg">
  <defs
     id="defs3" />
  <sodipodi:namedview
     id="namedview3"
     pagecolor="#ffffff"
     bordercolor="#000000"
     borderopacity="0.25"
     inkscape:showpageshadow="2"
     inkscape:pageopacity="0.0"
     inkscape:pagecheckerboard="0"
     inkscape:deskcolor="#d1d1d1" />
  <g
     id="g10">
    <path
       style="fill:#000000;stroke:#000000;stroke-width:0.830091;stroke-linecap:square"
       d="m 31.072153,34.985772 C 30.462758,34.876084 29.636691,34.550041 29.102663,34.208427 28.851066,34.047483 27.644398,33.155968 26.42118,32.227283 25.197961,31.298598 23.35668,29.903006 22.329442,29.125968 21.302205,28.348929 17.211933,25.255022 13.239948,22.250617 9.2679637,19.246212 5.965965,16.739323 5.9021732,16.679751 5.613195,16.40989 6.9820381,14.928 8.0274108,14.378999 8.3558447,14.206514 8.91258,13.991728 9.2646002,13.901696 9.893737,13.74079 10.280929,13.738003 32,13.738003 c 21.719071,0 22.106263,0.0028 22.7354,0.163693 1.257034,0.321496 2.556977,1.233811 3.211583,2.253927 0.226536,0.353026 0.249314,0.432163 0.150844,0.524072 -0.06379,0.05954 -3.365791,2.56663 -7.337775,5.57131 -3.971985,3.004681 -7.987549,6.042424 -8.923476,6.750541 -0.935927,0.708116 -2.775215,2.102581 -4.087306,3.098809 -2.8876,2.19246 -3.227807,2.416517 -4.076126,2.6845 -0.748679,0.236508 -1.906409,0.325938 -2.600991,0.200917 z"
       id="path7" />
    <path
       style="fill:#000000;stroke:#000000;stroke-width:0.830091;stroke-linecap:square"
       d="M 5.1465629,32.327137 c 0,-9.810223 0.020938,-12.277617 0.1037614,-12.227676 0.3377403,0.203652 14.7963687,11.183181 14.7963687,11.236001 0,0.06658 -14.783799,13.281918 -14.8582808,13.281918 -0.023017,0 -0.041849,-5.530609 -0.041849,-12.290243 z"
       id="path8" />
    <path
       style="fill:#000000;stroke:#000000;stroke-width:0.830091;stroke-linecap:square"
       d="m 9.2318985,50.094431 C 8.8993259,50.007297 8.3579044,49.794568 8.0287397,49.621699 7.4710031,49.328791 6.3957814,48.421597 6.22241,48.097649 c -0.063693,-0.11901 1.232245,-1.309673 7.821687,-7.186294 4.343915,-3.874008 8.056732,-7.18413 8.250704,-7.355827 l 0.352676,-0.312176 2.419237,1.820808 c 2.588817,1.948441 3.216354,2.323061 4.528675,2.703485 1.572416,0.455821 3.237473,0.455402 4.81315,-0.0012 1.308075,-0.379065 1.937419,-0.754955 4.526221,-2.703384 l 2.420713,-1.821918 0.302808,0.272383 c 0.166545,0.14981 3.87869,3.460446 8.249212,7.356969 6.629176,5.910217 7.933751,7.108227 7.870079,7.227199 -0.173189,0.323607 -1.248347,1.230989 -1.804982,1.523318 -0.328435,0.172485 -0.88517,0.387271 -1.23719,0.477303 -0.629375,0.160967 -1.00869,0.163617 -22.76943,0.159123 -21.501379,-0.0044 -22.1465544,-0.0091 -22.7340715,-0.162996 z"
       id="path9" />
    <path
       style="fill:#000000;stroke:#000000;stroke-width:0.830091;stroke-linecap:square"
       d="M 51.38262,38.031403 c -4.086122,-3.64714 -7.429313,-6.659982 -7.429313,-6.695203 0,-0.03522 3.343191,-2.592222 7.429313,-5.682224 l 7.429313,-5.618186 0.02128,6.19614 c 0.0117,3.407878 0.0117,8.948902 0,12.313389 l -0.02128,6.117249 z"
       id="path10" />
  </g>
</svg>
